# xmcd
#
# Track frame offsets: 
#        150
#        18475
#        39471
#        56543
#        73996
#        91728
#        114969
#        138264
#
# Disc length: 2100 seconds
#
# Revision: 0
# Processed by: cddbd v1.5.2PL0 Copyright (c) Steve Scherf et al.
# Submitted via: ExactAudioCopy v1.0b3
#
DISCID=64083208
DTITLE=Soles Of Passion - Bumo Me Up
DYEAR=2012
DGENRE=Country
TTITLE0=Hold On
TTITLE1=Bump Me Up
TTITLE2=Change Up
TTITLE3=Got Me Surrounded
TTITLE4=On My Own
TTITLE5=Cow Girl Blind
TTITLE6=Paris
TTITLE7=Feels Good
EXTD=
EXTT0=
EXTT1=
EXTT2=
EXTT3=
EXTT4=
EXTT5=
EXTT6=
EXTT7=
PLAYORDER=
